<?xml version="1.0" encoding="UTF-8"?>
<svg class="svg-inline--fa fa-hdd fa-w-18" aria-hidden="true" data-icon="hdd" data-prefix="fas" focusable="false" role="img" version="1.1" viewBox="0 0 576 512" xmlns="http://www.w3.org/2000/svg" xmlns:cc="http://creativecommons.org/ns#" xmlns:dc="http://purl.org/dc/elements/1.1/" xmlns:rdf="http://www.w3.org/1999/02/22-rdf-syntax-ns#">
 <metadata>
  <rdf:RDF>
   <cc:Work rdf:about="">
    <dc:format>image/svg+xml</dc:format>
    <dc:type rdf:resource="http://purl.org/dc/dcmitype/StillImage"/>
    <dc:title/>
   </cc:Work>
  </rdf:RDF>
 </metadata>
 <path stroke="#798035" fill="#798035" d="m576 304v96c0 26.51-21.49 48-48 48h-480c-26.51 0-48-21.49-48-48v-96c0-26.51 21.49-48 48-48h480c26.51 0 48 21.49 48 48zm-48-80c10.567-9e-3 21.029 2.0865 30.777 6.165l-96.527-154.79c-8.9029-13.353-23.89-21.374-39.939-21.374h-268.62c-16.049 5.1e-5 -31.036 8.0207-39.938 21.374l-96.528 154.79c9.7478-4.0785 20.21-6.1743 30.777-6.165zm-48 96c-17.673 0-32 14.327-32 32s14.327 32 32 32 32-14.327 32-32-14.327-32-32-32z"/>
</svg>
